# xmcd
#
# Track frame offsets: 
#        150
#        10585
#        22110
#        34307
#        44180
#        59108
#        69608
#        81153
#        91913
#        104908
#        115925
#        122697
#        133681
#        145595
#        156735
#        169970
#        185386
#        196717
#        209275
#        221742
#
# Disc length: 3284 seconds
#
# Revision: 3
# Processed by: cddbd v1.5.2PL0 Copyright (c) Steve Scherf et al.
# Submitted via: ExactAudioCopyFreeDBPlugin 1.0
#
DISCID=360cd214
DTITLE=Various Artist - Night Train to Nashville:  Music City Rhythm 
DTITLE=& Blues, 1945-1970
DYEAR=2005
DGENRE=Rhythm and Blues
TTITLE0=Dr. Feelgood and the Interns (Piano Red) - Doctor Feel-Good
TTITLE1=Christine Kittrell - I'm a Woman
TTITLE2=Herbert Hunter - Don't Pity Me
TTITLE3=Clyde McPhatter - Next to Me
TTITLE4=Esther Phillips - Release Me
TTITLE5=Arthur Alexander - Soldier of Love
TTITLE6=Earl Gaines - Don't Take My Kindness for a Weakness
TTITLE7=Marion James - That's My Man
TTITLE8=Roscoe Shelton - Strain on My Heart
TTITLE9=Johnny Jones and the King Casuals - Soul Poppin'
TTITLE10=John Richbourg - Swinging Soul Medallion commercial
TTITLE11=Jimmy Church - Right on Time
TTITLE12=Frank Howard - Judy
TTITLE13=Sandra King - Leave It Up to the Boys
TTITLE14=The Spidells - Don't You Forget That You're My Baby
TTITLE15=Johnny Bragg - I'm Free (The Prisoner's Song)
TTITLE16=The Fabulettes - Screamin' and Shoutin'
TTITLE17=Joe Simon - (You Keep Me) Hangin' On
TTITLE18=Freddie North - She's All I Got
TTITLE19=The Imperials - Lucky Lou
EXTD=2CD: UMG/CMF [Country Music Foundation]/Lost Highway B0005228-02 
EXTD=(2005-09-20), UPC 022111002629, BMG D204317.
EXTT0=
EXTT1=
EXTT2=
EXTT3=
EXTT4=
EXTT5=
EXTT6=
EXTT7=
EXTT8=
EXTT9=
EXTT10=
EXTT11=
EXTT12=
EXTT13=
EXTT14=
EXTT15=
EXTT16=
EXTT17=
EXTT18=
EXTT19=
PLAYORDER=
